<?xml version="1.0" encoding="iso-8859-1"?>
<!-- Generator: Adobe Illustrator 19.0.0, SVG Export Plug-In . SVG Version: 6.00 Build 0)  -->
<svg version="1.1" id="Capa_1" xmlns="http://www.w3.org/2000/svg" xmlns:xlink="http://www.w3.org/1999/xlink" x="0px" y="0px"
	 viewBox="0 0 512 512" style="enable-background:new 0 0 512 512;" xml:space="preserve">
<circle style="fill:#5A7EBF;" cx="256" cy="256" r="256"/>
<path style="fill:#2E50A2;" d="M414.933,82.07c-12.188-12.188-28.874-18.691-46.131-17.952c-0.014,0.001-0.029,0-0.043,0.001
	c-14.833,0.644-29.476,6.624-40.802,17.949L99.915,310.111l-20.86,107.834l71.31,71.31C182.571,503.862,218.335,512,256,512
	c141.385,0,256-114.615,256-256c0-33.623-6.494-65.725-18.276-95.139L414.933,82.07z"/>
<path style="fill:#F7DC4D;" d="M186.889,397.085l-107.834,20.86l20.86-107.834L327.957,82.069c24.017-24.017,62.957-24.017,86.974,0
	s24.017,62.957,0,86.974L186.889,397.085z"/>
<path style="fill:#EA971E;" d="M414.931,82.069L79.056,417.944l107.834-20.86l228.042-228.042
	C438.949,145.026,438.949,106.086,414.931,82.069z"/>
<path style="fill:#ACACB2;" d="M389.147,194.827l25.784-25.784c24.017-24.017,24.017-62.957,0-86.974s-62.957-24.017-86.974,0
	l-25.784,25.784L389.147,194.827z"/>
<path style="fill:#8A8A91;" d="M414.931,82.069L345.66,151.34l43.487,43.487l25.784-25.784
	C438.949,145.026,438.949,106.086,414.931,82.069z"/>
<path style="fill:#E25F3F;" d="M415.301,168.654c23.637-24.046,23.521-62.696-0.369-86.586s-62.54-24.006-86.586-0.369
	L415.301,168.654z"/>
<path style="fill:#C7492A;" d="M415.301,168.654c11.078-11.27,16.939-25.748,17.58-40.411c0.001-0.022,0.001-0.045,0.002-0.067
	c0.726-17.153-5.714-33.87-17.951-46.107l-43.108,43.108L415.301,168.654z"/>
<polygon style="fill:#E3E3F2;" points="99.907,310.153 79.056,417.944 186.847,397.093 "/>
<polygon style="fill:#C6C5CA;" points="143.377,353.623 79.056,417.944 186.847,397.093 "/>
<polygon style="fill:#57565C;" points="88.446,369.402 79.056,417.944 127.598,408.554 "/>
<polygon style="fill:#3E3E42;" points="108.022,388.978 79.056,417.944 127.598,408.554 "/>
<g>
</g>
<g>
</g>
<g>
</g>
<g>
</g>
<g>
</g>
<g>
</g>
<g>
</g>
<g>
</g>
<g>
</g>
<g>
</g>
<g>
</g>
<g>
</g>
<g>
</g>
<g>
</g>
<g>
</g>
</svg>
